<svg width="430" height="932" viewBox="0 0 430 932" fill="none" xmlns="http://www.w3.org/2000/svg">
<rect width="430" height="932" fill="#1E1E1E"/>
<g clip-path="url(#clip0_0_1)">
<rect width="430" height="932" fill="white"/>
<g filter="url(#filter0_f_0_1)">
<path d="M629 863.5C629 973.129 506.55 1062 355.5 1062C204.45 1062 82 973.129 82 863.5C82 753.871 204.45 665 355.5 665C506.55 665 629 753.871 629 863.5Z" fill="#5500E7" fill-opacity="0.16"/>
</g>
<g filter="url(#filter1_f_0_1)">
<path d="M356 67.5C356 176.576 227.058 265 68 265C-91.058 265 -220 176.576 -220 67.5C-220 -41.5762 -91.058 -130 68 -130C227.058 -130 356 -41.5762 356 67.5Z" fill="#5500E7" fill-opacity="0.2"/>
</g>
</g>
<defs>
<filter id="filter0_f_0_1" x="42" y="625" width="627" height="477" filterUnits="userSpaceOnUse" color-interpolation-filters="sRGB">
<feFlood flood-opacity="0" result="BackgroundImageFix"/>
<feBlend mode="normal" in="SourceGraphic" in2="BackgroundImageFix" result="shape"/>
<feGaussianBlur stdDeviation="20" result="effect1_foregroundBlur_0_1"/>
</filter>
<filter id="filter1_f_0_1" x="-260" y="-170" width="656" height="475" filterUnits="userSpaceOnUse" color-interpolation-filters="sRGB">
<feFlood flood-opacity="0" result="BackgroundImageFix"/>
<feBlend mode="normal" in="SourceGraphic" in2="BackgroundImageFix" result="shape"/>
<feGaussianBlur stdDeviation="20" result="effect1_foregroundBlur_0_1"/>
</filter>
<clipPath id="clip0_0_1">
<rect width="430" height="932" fill="white"/>
</clipPath>
</defs>
</svg>
